<svg xmlns="http://www.w3.org/2000/svg" viewBox="0 0 32 32">
  <defs>
    <linearGradient id="bg" x1="0%" y1="0%" x2="100%" y2="100%">
      <stop offset="0%" style="stop-color:#1a1f4d;stop-opacity:1" />
      <stop offset="100%" style="stop-color:#4a5085;stop-opacity:1" />
    </linearGradient>
    <linearGradient id="circle" x1="0%" y1="0%" x2="100%" y2="100%">
      <stop offset="0%" style="stop-color:#60a5fa;stop-opacity:1" />
      <stop offset="50%" style="stop-color:#3b82f6;stop-opacity:1" />
      <stop offset="100%" style="stop-color:#f97316;stop-opacity:1" />
    </linearGradient>
  </defs>
  
  <rect width="32" height="32" rx="6" fill="url(#bg)"/>
  <circle cx="16" cy="16" r="11" fill="none" stroke="url(#circle)" stroke-width="2"/>
  
  <!-- CF with lightning -->
  <g transform="translate(16, 16) scale(0.4)">
    <path d="M -15,-10 L -10,-10 L -10,-5 L -12,-5 L -12,5 L -10,5 L -10,10 L -15,10 Q -17,10 -17,8 L -17,-8 Q -17,-10 -15,-10 Z" fill="white"/>
    <path d="M -5,-12 L 0,0 L -2,0 L 3,12 L 1,5 L 3,5 Z" fill="#fbbf24"/>
    <path d="M 8,-10 L 15,-10 L 15,-5 L 10,-5 L 10,0 L 14,0 L 14,3 L 10,3 L 10,10 L 8,10 Z" fill="white"/>
  </g>
</svg>